<svg width="200" height="200" viewBox="0 0 1024 1024" xmlns="http://www.w3.org/2000/svg" xmlns:xlink="http://www.w3.org/1999/xlink" overflow="hidden"><path d="M731.392 102.4 292.198 102.4C267.571 102.394 244.849 115.652 232.738 137.097L84.5653 399.531C70.3129 424.773 73.5565 456.264 92.6549 478.071L460.22 897.911C485.055 926.279 528.184 929.142 556.551 904.307 558.782 902.353 560.883 900.257 562.842 898.031L931.209 479.386C950.391 457.592 953.691 426.051 939.435 400.759L790.869 137.148C778.769 115.679 756.036 102.398 731.392 102.4ZM292.198 170.667 731.392 170.667 879.957 434.278 511.59 852.941 144.009 433.101 292.198 170.667Z" fill="#FFFFFF"/><path d="M546.133 256 546.133 392.533 682.667 392.533 682.667 460.8 546.133 460.8 546.133 597.333 477.867 597.333 477.867 460.8 341.333 460.8 341.333 392.533 477.867 392.533 477.867 256 546.133 256Z" fill="#FFFFFF"/></svg>